<?xml version="1.0" encoding="UTF-8"?>
<svg xmlns="http://www.w3.org/2000/svg" xmlns:xlink="http://www.w3.org/1999/xlink" viewBox="0 0 48 48" width="48px" height="48px">
<g id="surface10496131">
<path style=" stroke:none;fill-rule:nonzero;fill:rgb(0%,0%,0%);fill-opacity:1;" d="M 44.582031 -1.199219 L 3.417969 -1.199219 C 0.898438 -1.199219 -1.199219 0.898438 -1.199219 3.417969 L -1.199219 44.582031 C -1.199219 47.101562 0.898438 49.199219 3.417969 49.199219 L 24 49.199219 L 24 28.199219 L 17.699219 28.199219 L 17.699219 21.898438 L 24 21.898438 L 24 15.601562 C 24 10.351562 26.101562 7.199219 32.398438 7.199219 L 38.699219 7.199219 L 38.699219 13.5 L 35.96875 13.5 C 34.082031 13.5 32.398438 15.179688 32.398438 17.066406 L 32.398438 21.898438 L 40.800781 21.898438 L 39.75 28.199219 L 32.398438 28.199219 L 32.398438 49.199219 L 44.582031 49.199219 C 47.101562 49.199219 49.199219 47.101562 49.199219 44.582031 L 49.199219 3.417969 C 49.199219 0.898438 47.101562 -1.199219 44.582031 -1.199219 Z M 44.582031 -1.199219 "/>
</g>
</svg>
