<?xml version="1.0" encoding="UTF-8"?>
<svg xmlns="http://www.w3.org/2000/svg" xmlns:xlink="http://www.w3.org/1999/xlink" viewBox="0 0 48 48" width="48px" height="48px">
<g id="surface10254817">
<path style=" stroke:none;fill-rule:nonzero;fill:rgb(0%,0%,0%);fill-opacity:1;" d="M 0.601562 0.601562 L 0.601562 47.398438 L 47.398438 47.398438 L 47.398438 0.601562 Z M 39.601562 5.800781 C 41.035156 5.800781 42.199219 6.964844 42.199219 8.398438 C 42.199219 9.835938 41.035156 11 39.601562 11 C 38.164062 11 37 9.835938 37 8.398438 C 37 6.964844 38.164062 5.800781 39.601562 5.800781 Z M 24 11 C 31.179688 11 37 16.820312 37 24 C 37 31.179688 31.179688 37 24 37 C 16.820312 37 11 31.179688 11 24 C 11 16.820312 16.820312 11 24 11 Z M 24 16.199219 C 19.691406 16.199219 16.199219 19.691406 16.199219 24 C 16.199219 28.308594 19.691406 31.800781 24 31.800781 C 28.308594 31.800781 31.800781 28.308594 31.800781 24 C 31.800781 19.691406 28.308594 16.199219 24 16.199219 Z M 24 16.199219 "/>
</g>
</svg>
